<svg xmlns="http://www.w3.org/2000/svg" viewBox="0 0 32 32">
  <rect width="32" height="32" rx="6" fill="#050505"/>
  <!-- Aperture blades -->
  <g transform="translate(16,16)">
    <!-- Blade 1 -->
    <path d="M0,-8 A8,8 0 0,1 6.93,-4 L1.5,0 A4,4 0 0,0 0,-4 Z" fill="#F5F5F0" opacity="0.9"/>
    <!-- Blade 2 -->
    <path d="M6.93,-4 A8,8 0 0,1 6.93,4 L0,1.5 A4,4 0 0,0 3.46,0 Z" fill="#F5F5F0" opacity="0.75"/>
    <!-- Blade 3 -->
    <path d="M6.93,4 A8,8 0 0,1 0,8 L-1.5,0 A4,4 0 0,0 3.46,2 Z" fill="#F5F5F0" opacity="0.9"/>
    <!-- Blade 4 -->
    <path d="M0,8 A8,8 0 0,1 -6.93,4 L-1.5,0 A4,4 0 0,0 0,4 Z" fill="#F5F5F0" opacity="0.75"/>
    <!-- Blade 5 -->
    <path d="M-6.93,4 A8,8 0 0,1 -6.93,-4 L0,-1.5 A4,4 0 0,0 -3.46,0 Z" fill="#F5F5F0" opacity="0.9"/>
    <!-- Blade 6 -->
    <path d="M-6.93,-4 A8,8 0 0,1 0,-8 L1.5,0 A4,4 0 0,0 -3.46,-2 Z" fill="#F5F5F0" opacity="0.75"/>
    <!-- Center circle -->
    <circle r="2.5" fill="#050505"/>
  </g>
</svg>
